<svg width="800" height="800" viewBox="0 0 800 800" fill="none" xmlns="http://www.w3.org/2000/svg">
<path d="M657.059 48.9822C684.348 70.832 698.834 96.2176 702.272 124.76C705.662 152.902 698.164 182.904 683.991 214.056C655.775 276.072 599.058 346.794 537.807 423.294C476.6 499.74 422.773 567.105 371.166 604.691C345.171 623.623 318.837 635.705 291.599 637.096C264.092 638.5 237.076 628.933 210.043 607.289C183.011 585.646 167.767 561.376 163.121 534.228C158.52 507.345 164.551 479.007 177.339 449.501C202.726 390.922 256.686 323.663 317.893 247.217C379.144 170.717 435.749 99.9057 490.092 58.8086C517.39 38.1647 545.025 24.2863 573.227 21.4387C601.83 18.5506 629.769 27.1327 657.059 48.9822Z" stroke="white" stroke-width="20"/>
<rect x="187.164" y="557.195" width="83.96" height="215.056" transform="rotate(38.6829 187.164 557.195)" fill="white"/>
<path d="M97.4316 736.433C102.94 740.843 107.562 746.041 110.409 751.229C111.82 753.801 113.047 756.826 113.434 760.059C113.828 763.34 113.411 767.641 110.439 771.353C107.467 775.065 103.361 776.412 100.073 776.746C96.8335 777.075 93.6142 776.54 90.7953 775.725C85.1108 774.082 79.027 770.709 73.5188 766.299C68.0108 761.889 63.3895 756.69 60.5425 751.503C59.1307 748.931 57.9045 745.906 57.5169 742.673C57.1359 739.494 57.5149 735.359 60.2411 731.728L60.5122 731.379L60.7941 731.038C63.7401 727.583 67.6924 726.309 70.8777 725.986C74.1177 725.657 77.3369 726.192 80.1559 727.007C85.8403 728.65 91.9234 732.022 97.4316 736.433Z" stroke="white" stroke-width="20"/>
<rect x="194.97" y="563.445" width="63.96" height="215.056" transform="rotate(38.6829 194.97 563.445)" fill="black"/>
<path d="M94.3064 740.336C99.4294 744.437 103.566 749.153 106.025 753.634C107.25 755.864 108.183 758.264 108.47 760.654C108.759 763.069 108.416 765.88 106.536 768.228C104.656 770.576 101.988 771.526 99.5685 771.772C97.1731 772.015 94.6276 771.629 92.1837 770.922C87.2728 769.502 81.7667 766.497 76.6438 762.396C71.5209 758.294 67.385 753.579 64.9254 749.097C63.7014 746.867 62.7674 744.468 62.4809 742.077C62.2005 739.738 62.5141 737.027 64.2431 734.725L64.4152 734.504L64.5934 734.287C66.4613 732.097 69.0386 731.198 71.3824 730.96C73.7778 730.716 76.3233 731.103 78.7672 731.81C83.678 733.229 89.1835 736.234 94.3064 740.336Z" stroke="black" stroke-width="10"/>
<rect x="202.776" y="569.695" width="43.958" height="215.056" transform="rotate(38.6829 202.776 569.695)" fill="#FFCD59"/>
<ellipse cx="85.4753" cy="751.366" rx="21.979" ry="9.12974" transform="rotate(38.6829 85.4753 751.366)" fill="#8E671C"/>
<path d="M653.934 52.8853C680.347 74.0338 694.048 98.2906 697.308 125.358C700.544 152.225 693.421 181.255 679.439 211.986C651.542 273.302 595.314 343.471 533.904 420.169C472.517 496.841 419.158 563.551 368.222 600.649C342.658 619.267 317.253 630.78 291.345 632.103C265.302 633.432 239.454 624.432 213.169 603.386C186.884 582.341 172.448 559.088 168.049 533.385C163.673 507.815 169.351 480.506 181.927 451.489C206.985 393.672 260.409 327.014 321.796 250.342C383.206 173.644 439.378 103.43 493.108 62.7968C520.036 42.4325 546.804 29.1318 573.729 26.4131C600.854 23.6742 627.52 31.737 653.934 52.8853Z" stroke="black" stroke-width="10"/>
<path d="M530.002 417.044C406.865 570.838 318.445 681.272 216.294 599.483C114.143 517.695 202.563 407.26 325.699 253.467C448.836 99.674 548.658 -25 650.809 56.7886C752.96 138.577 653.138 263.251 530.002 417.044Z" fill="#CFA01E"/>
<path d="M598.952 100.34C598.952 100.34 502.876 75.7507 464.729 123.394C426.583 171.037 516.939 222.494 475.905 274.959C434.871 327.424 354.558 255.326 309.504 311.598C264.449 367.87 360.264 402.522 320.015 452.791C279.766 503.06 203.329 474.059 203.329 474.059" stroke="#FFE100" stroke-width="20" stroke-linecap="round"/>
</svg>
